<svg width="32" height="26" viewBox="0 0 32 26" fill="none" xmlns="http://www.w3.org/2000/svg">
<path d="M29.3333 4.25003H25.1048C24.5703 4.25003 24.0684 4.05474 23.6901 3.70071L21.2526 1.41556C20.6231 0.825343 19.7858 0.500031 18.8952 0.500031H13.1048C12.2142 0.500031 11.3769 0.825343 10.7474 1.41556L8.30987 3.70071C7.93162 4.05474 7.42969 4.25003 6.89519 4.25003H2.66669C1.19594 4.25003 0 5.37122 0 6.74999V23C0 24.3787 1.19594 25.5 2.66669 25.5H29.3334C30.8041 25.5 32.0001 24.3788 32.0001 23V6.74999C32 5.37122 30.8041 4.25003 29.3333 4.25003ZM16 21.75C11.5886 21.75 8 18.3857 8 14.25C8 10.1143 11.5886 6.74999 16 6.74999C20.4114 6.74999 24 10.1143 24 14.25C24 18.3857 20.4114 21.75 16 21.75ZM26.6667 10.5C25.9317 10.5 25.3334 9.93907 25.3334 9.25001C25.3334 8.56095 25.9317 8.00003 26.6667 8.00003C27.4017 8.00003 28 8.56095 28 9.25001C28 9.93907 27.4017 10.5 26.6667 10.5Z" fill="#62676b"/>
</svg>
