<svg width="20" height="26" viewBox="0 0 20 26" fill="none" xmlns="http://www.w3.org/2000/svg">
<path d="M1.49998 22.9167C1.49998 24.475 2.77498 25.75 4.33331 25.75H15.6666C17.225 25.75 18.5 24.475 18.5 22.9167V8.75C18.5 7.19167 17.225 5.91667 15.6666 5.91667H4.33331C2.77498 5.91667 1.49998 7.19167 1.49998 8.75V22.9167ZM18.5 1.66667H14.9583L13.9525 0.660833C13.6975 0.405833 13.3291 0.25 12.9608 0.25H7.03915C6.67081 0.25 6.30248 0.405833 6.04748 0.660833L5.04165 1.66667H1.49998C0.720813 1.66667 0.083313 2.30417 0.083313 3.08333C0.083313 3.8625 0.720813 4.5 1.49998 4.5H18.5C19.2791 4.5 19.9166 3.8625 19.9166 3.08333C19.9166 2.30417 19.2791 1.66667 18.5 1.66667Z" fill="black"/>
</svg>
