<svg width="20" height="26" viewBox="0 0 20 26" fill="none" xmlns="http://www.w3.org/2000/svg">
<path d="M1.41667 22.9167C1.41667 24.475 2.69167 25.75 4.25 25.75H15.5833C17.1417 25.75 18.4167 24.475 18.4167 22.9167V8.75C18.4167 7.19167 17.1417 5.91667 15.5833 5.91667H4.25C2.69167 5.91667 1.41667 7.19167 1.41667 8.75V22.9167ZM18.4167 1.66667H14.875L13.8692 0.660833C13.6142 0.405833 13.2458 0.25 12.8775 0.25H6.95583C6.5875 0.25 6.21917 0.405833 5.96417 0.660833L4.95833 1.66667H1.41667C0.6375 1.66667 0 2.30417 0 3.08333C0 3.8625 0.6375 4.5 1.41667 4.5H18.4167C19.1958 4.5 19.8333 3.8625 19.8333 3.08333C19.8333 2.30417 19.1958 1.66667 18.4167 1.66667Z" fill="#DB2424"/>
</svg>
